<svg width="32" height="32" viewBox="0 0 32 32" fill="none" xmlns="http://www.w3.org/2000/svg">
<path fill-rule="evenodd" clip-rule="evenodd" d="M1.71906 3.68429C1.80276 3.43274 1.98292 3.22471 2.21995 3.10595C2.45697 2.98719 2.73145 2.96741 2.98306 3.05096L3.33639 3.16962L3.38973 3.18696C4.22439 3.46562 4.92973 3.70029 5.48573 3.95896C6.07506 4.23362 6.58706 4.57229 6.97506 5.11229C7.36306 5.64962 7.52439 6.24296 7.59773 6.88962C7.66706 7.49762 7.66706 8.24162 7.66706 9.12162V12.667C7.66706 14.5803 7.66973 15.9163 7.80439 16.923C7.93639 17.9016 8.17773 18.419 8.54572 18.7883C8.91506 19.1576 9.43373 19.3976 10.4124 19.5296C11.4191 19.6643 12.7537 19.667 14.6671 19.667H24.0004C24.1317 19.667 24.2617 19.6928 24.3831 19.7431C24.5044 19.7933 24.6146 19.867 24.7075 19.9598C24.8004 20.0527 24.874 20.1629 24.9243 20.2843C24.9745 20.4056 25.0004 20.5356 25.0004 20.667C25.0004 20.7983 24.9745 20.9283 24.9243 21.0496C24.874 21.171 24.8004 21.2812 24.7075 21.3741C24.6146 21.4669 24.5044 21.5406 24.3831 21.5908C24.2617 21.6411 24.1317 21.667 24.0004 21.667H14.5937C12.7711 21.667 11.3004 21.667 10.1444 21.511C8.94439 21.351 7.93373 21.0043 7.13106 20.203C6.32973 19.4003 5.98439 18.3896 5.82306 17.1896C5.66706 16.0336 5.66706 14.563 5.66706 12.7403V9.17762C5.66706 8.22696 5.66706 7.59762 5.61106 7.11629C5.55773 6.66029 5.46839 6.44029 5.35239 6.28162C5.23773 6.12162 5.05773 5.96562 4.64173 5.77229C4.20173 5.56829 3.60573 5.36696 2.70439 5.06562L2.35106 4.94829C2.09975 4.86432 1.89204 4.68404 1.77354 4.44705C1.65505 4.21005 1.63545 3.93572 1.71906 3.68429Z" fill="#704FE6"/>
<path opacity="0.5" d="M7.66016 8C7.66549 8.34667 7.66771 8.72044 7.66682 9.12133V12.6667C7.66682 14.58 7.66949 15.916 7.80416 16.9227C7.8246 17.0693 7.84682 17.2062 7.87082 17.3333H21.3642C22.6428 17.3333 23.2815 17.3333 23.7828 17.0027C24.2842 16.672 24.5362 16.0853 25.0388 14.9093L25.6122 13.576C26.6908 11.056 27.2295 9.79867 26.6375 8.89867C26.0455 7.99867 24.6748 8 21.9335 8H7.66016Z" fill="#704FE6"/>
<path d="M10 24C10.5304 24 11.0391 24.2107 11.4142 24.5858C11.7893 24.9609 12 25.4696 12 26C12 26.5304 11.7893 27.0391 11.4142 27.4142C11.0391 27.7893 10.5304 28 10 28C9.46957 28 8.96086 27.7893 8.58579 27.4142C8.21071 27.0391 8 26.5304 8 26C8 25.4696 8.21071 24.9609 8.58579 24.5858C8.96086 24.2107 9.46957 24 10 24ZM24 26C24 25.4696 23.7893 24.9609 23.4142 24.5858C23.0391 24.2107 22.5304 24 22 24C21.4696 24 20.9609 24.2107 20.5858 24.5858C20.2107 24.9609 20 25.4696 20 26C20 26.5304 20.2107 27.0391 20.5858 27.4142C20.9609 27.7893 21.4696 28 22 28C22.5304 28 23.0391 27.7893 23.4142 27.4142C23.7893 27.0391 24 26.5304 24 26Z" fill="#704FE6"/>
</svg>
