<svg width="48" height="48" viewBox="0 0 48 48" fill="none" xmlns="http://www.w3.org/2000/svg">
<circle cx="24" cy="24" r="24" fill="#704FE6"/>
<path d="M20.3203 14.1277C20.1141 14.184 19.8375 14.2777 19.7109 14.3387C19.5797 14.3949 19.35 14.5356 19.1953 14.6434C19.0406 14.7559 18.8016 14.9715 18.6609 15.1215C18.525 15.2715 18.3281 15.5481 18.2297 15.7262C18.1312 15.9043 18.0469 16.1059 18.0469 16.1715C18.0469 16.2371 18.1312 16.4668 18.2437 16.6871C18.3703 16.9449 18.5438 17.1934 18.7313 17.3902C18.9141 17.5871 19.1344 17.7559 19.3406 17.8684C19.5188 17.9621 19.7906 18.0746 19.9453 18.1215C20.1469 18.1824 20.4 18.2059 20.8266 18.2059C21.4125 18.2106 21.4313 18.2152 21.5203 18.3277C21.5719 18.3934 21.6141 18.4918 21.6094 18.5527C21.6094 18.609 21.5578 18.7121 21.4969 18.7871L21.3844 18.9137C19.95 18.909 19.8703 18.8996 19.5234 18.7824C19.3172 18.7074 18.9984 18.5574 18.8203 18.4449C18.6422 18.3371 18.3656 18.1121 18.2109 17.9481C18.0563 17.784 17.8453 17.5121 17.7469 17.3434C17.6437 17.1746 17.5594 17.034 17.5594 17.0246C17.5547 17.0152 17.4281 17.0434 17.2734 17.0856C17.1188 17.1277 16.8234 17.2496 16.6172 17.3574C16.3547 17.4934 16.1344 17.6574 15.8859 17.9059C15.6891 18.0981 15.45 18.3934 15.3562 18.5621C15.2578 18.7309 15.1219 19.0262 15.0562 19.2184C14.9625 19.4949 14.9297 19.7106 14.9062 20.2262C14.8781 20.7137 14.8453 20.9481 14.775 21.1402C14.7188 21.2809 14.5594 21.5387 14.4141 21.7168C14.2734 21.8902 14.0859 22.1434 14.0016 22.2793C13.9172 22.4106 13.8 22.6309 13.7438 22.7574C13.6922 22.8887 13.6125 23.1465 13.575 23.334C13.5328 23.5168 13.5 23.8309 13.5 24.0231C13.5 24.2152 13.5328 24.5152 13.575 24.6934C13.6125 24.8668 13.6922 25.1152 13.7484 25.2418C13.8 25.3731 13.9172 25.5887 14.0016 25.7246C14.0859 25.8559 14.2734 26.109 14.4141 26.2871C14.5594 26.4606 14.7188 26.7184 14.775 26.859C14.8453 27.0512 14.8781 27.2902 14.9062 27.7965C14.9344 28.2934 14.9719 28.5606 15.0469 28.7809C15.1031 28.9496 15.225 29.2215 15.3188 29.3902C15.4125 29.559 15.6187 29.8309 15.7781 29.9996C15.9328 30.1684 16.2 30.3934 16.3641 30.5012C16.5281 30.609 16.8375 30.7637 17.0531 30.8434C17.2641 30.9184 17.4516 30.984 17.475 30.984C17.4938 30.984 17.5828 30.8715 17.6719 30.7402C17.7609 30.609 17.9625 30.3887 18.1172 30.2481C18.2719 30.1074 18.5672 29.9152 18.7734 29.8121C18.9797 29.7137 19.3172 29.5918 19.5234 29.5496C19.7812 29.4887 20.0813 29.4652 20.4844 29.4652C20.8078 29.4699 21.15 29.4934 21.2484 29.5215C21.3422 29.5543 21.4406 29.6199 21.4688 29.6715C21.4969 29.7231 21.5156 29.8309 21.5156 29.9059C21.5156 29.9856 21.4734 30.0887 21.4219 30.1402C21.3375 30.2246 21.2719 30.234 20.6109 30.2246C20.0484 30.2152 19.8328 30.234 19.5938 30.2996C19.425 30.3465 19.1813 30.4402 19.0547 30.5059C18.9234 30.5715 18.7172 30.7215 18.5906 30.8387C18.4641 30.9559 18.2766 31.1809 18.1781 31.3356C18.0797 31.4902 18 31.6637 18 31.7246C18 31.7809 18.0844 31.9918 18.1828 32.1934C18.2906 32.3949 18.4969 32.6949 18.6656 32.8777C18.8297 33.0559 19.0875 33.2856 19.2422 33.3887C19.3969 33.4965 19.6359 33.6277 19.7719 33.6887C19.9031 33.7496 20.1937 33.8387 20.4141 33.8902C20.6344 33.9418 20.9344 33.984 21.0844 33.984C21.2297 33.984 21.5297 33.9418 21.75 33.8902C21.9703 33.834 22.3266 33.7027 22.5469 33.5949C22.8047 33.4637 23.0578 33.2902 23.2828 33.084L23.625 32.7652V23.0152C23.3906 23.0481 23.1609 23.0715 22.9688 23.0902C22.7484 23.109 22.4578 23.0949 22.1953 23.0574C21.9656 23.0199 21.5953 22.9965 21.375 23.0012C21.1547 23.0012 20.8406 23.0434 20.6719 23.0856C20.5031 23.1277 20.2641 23.2215 20.1375 23.2871C20.0109 23.3574 19.7953 23.5402 19.6594 23.6949C19.4391 23.9387 19.3875 23.9762 19.2375 23.9762C19.1156 23.9762 19.0453 23.9434 18.9797 23.859C18.9281 23.7934 18.8906 23.6809 18.8906 23.6012C18.8906 23.5215 18.9609 23.3715 19.05 23.2496C19.1391 23.1324 19.3219 22.9496 19.4578 22.8465C19.5984 22.7387 19.7953 22.6074 19.8984 22.5559C20.0016 22.5043 20.175 22.4387 20.2875 22.4106L20.4844 22.359C20.1516 21.9418 19.9922 21.6934 19.9172 21.5387C19.8422 21.384 19.7719 21.1871 19.7578 21.1074C19.7391 20.9809 19.7625 20.9246 19.8703 20.8121C19.9453 20.7371 20.0437 20.6715 20.0812 20.6715C20.1234 20.6715 20.2078 20.6902 20.2734 20.7184C20.3578 20.7512 20.4375 20.8684 20.5453 21.1074C20.6297 21.2902 20.7937 21.5481 20.9062 21.6746C21.0234 21.7965 21.2016 21.9512 21.3047 22.0121C21.4078 22.0731 21.6187 22.1668 21.7734 22.2231C22.0125 22.3121 22.1484 22.3262 22.6641 22.3215C23.0016 22.3215 23.3484 22.3027 23.4375 22.2793L23.6016 22.2371L23.625 15.234C23.0578 14.709 22.8047 14.5356 22.5469 14.4043C22.3266 14.2965 21.975 14.1652 21.7594 14.1137C21.5297 14.0527 21.2391 14.0152 21.0375 14.0199C20.8453 14.0246 20.5266 14.0715 20.3203 14.1277ZM26.1797 14.1277C25.9734 14.184 25.7109 14.2731 25.5938 14.3246C25.4766 14.3762 25.2797 14.4887 25.1484 14.5777C25.0219 14.6668 24.7922 14.8543 24.6422 14.9949L24.3703 15.2574L24.375 20.6246C26.2359 20.6012 26.3391 20.5918 26.5078 20.5027C26.6109 20.4465 26.7562 20.3293 26.8312 20.2449C26.9062 20.1559 27 20.0106 27.0375 19.9215C27.0797 19.8184 27.1172 19.5324 27.1312 19.1715L27.1594 18.5856C26.8547 18.384 26.7188 18.2809 26.6672 18.2246C26.6109 18.1637 26.5266 18.0324 26.4797 17.9293C26.4234 17.8121 26.3906 17.634 26.3906 17.4606C26.3906 17.2637 26.4234 17.1184 26.4984 16.9731C26.5547 16.8559 26.6766 16.7012 26.7703 16.6215C26.8641 16.5418 27.0234 16.4481 27.1219 16.4199C27.2203 16.3871 27.4031 16.359 27.5297 16.359C27.6516 16.359 27.8203 16.3871 27.9047 16.4199C27.9844 16.4574 28.1391 16.5559 28.2375 16.6449C28.3406 16.734 28.4625 16.8981 28.5141 17.0152C28.5703 17.1418 28.6078 17.3293 28.6078 17.484C28.6078 17.6856 28.575 17.7981 28.4672 17.9996C28.3734 18.1731 28.2516 18.3043 28.1109 18.3981L27.8953 18.5387C27.8906 19.2277 27.8672 19.5699 27.8438 19.7481C27.8156 19.9215 27.7406 20.1746 27.675 20.3106C27.6047 20.4418 27.4969 20.6199 27.4313 20.6949C27.3703 20.7746 27.2063 20.9152 27.075 21.0137C26.9438 21.1121 26.7 21.234 26.5312 21.2856C26.2734 21.3606 26.0859 21.3746 25.2984 21.3746H24.375V22.6402H28.8516C29.2172 22.4715 29.3812 22.3496 29.4562 22.2606C29.5312 22.1715 29.625 22.0262 29.6625 21.9371C29.7047 21.834 29.7422 21.5574 29.7562 21.1871L29.7797 20.6012C29.3719 20.3434 29.2547 20.2215 29.1562 20.0527C29.0437 19.8512 29.0156 19.7481 29.0156 19.5137C29.0156 19.3496 29.0437 19.1481 29.0766 19.0684C29.1141 18.984 29.2031 18.8434 29.2781 18.7543C29.3531 18.6652 29.5219 18.5434 29.6484 18.4824C29.7938 18.4168 29.9719 18.3746 30.1172 18.3746C30.2625 18.3746 30.4406 18.4168 30.5859 18.4824C30.7172 18.5434 30.8813 18.6652 30.9562 18.7543C31.0312 18.8434 31.125 18.9887 31.1625 19.0777C31.2 19.1668 31.2281 19.359 31.2281 19.4996C31.2281 19.6731 31.1953 19.8324 31.1203 19.9871C31.0594 20.1137 30.9422 20.2684 30.8672 20.334C30.7922 20.3996 30.6797 20.4746 30.6188 20.5027C30.5203 20.5496 30.5109 20.5824 30.5156 20.9996C30.5156 21.2434 30.4922 21.5856 30.4688 21.7637C30.4406 21.9371 30.3656 22.1996 30.2953 22.3496C30.225 22.4949 30.0656 22.7152 29.9437 22.8418C29.8172 22.9637 29.5781 23.1324 29.4 23.2168L29.0859 23.3668L24.375 23.3902V24.609L29.0859 24.6324C29.5781 24.8668 29.8172 25.0356 29.9437 25.1621C30.0656 25.284 30.225 25.5043 30.2953 25.6543C30.3656 25.7996 30.4406 26.0621 30.4688 26.2402C30.4922 26.4137 30.5156 26.7559 30.5156 26.9996V27.4449C30.7781 27.5902 30.9094 27.6981 30.975 27.7731C31.0406 27.8481 31.125 27.9887 31.1625 28.0777C31.2 28.1668 31.2281 28.359 31.2281 28.4996C31.2281 28.6402 31.2 28.8324 31.1625 28.9215C31.125 29.0106 31.0312 29.1559 30.9562 29.2449C30.8813 29.334 30.7125 29.4559 30.5859 29.5168C30.4406 29.5824 30.2625 29.6246 30.1172 29.6246C29.9719 29.6246 29.7938 29.5824 29.6484 29.5168C29.5172 29.4559 29.3531 29.334 29.2781 29.2449C29.2031 29.1559 29.1141 29.0152 29.0766 28.9356C29.0437 28.8512 29.0156 28.6496 29.0156 28.4902C29.0156 28.2606 29.0437 28.1434 29.1469 27.9606C29.2359 27.7965 29.3484 27.6746 29.5266 27.5621L29.775 27.3981C29.7422 26.4418 29.7047 26.1652 29.6625 26.0621C29.625 25.9731 29.5312 25.8277 29.4562 25.7387C29.3812 25.6496 29.2172 25.5277 29.0859 25.4668L28.8516 25.359H24.375V26.6246C26.0859 26.6246 26.2734 26.6387 26.5312 26.7137C26.7 26.7652 26.9438 26.8871 27.075 26.9856C27.2063 27.084 27.3703 27.2293 27.4313 27.3043C27.4969 27.3793 27.6047 27.5574 27.675 27.6934C27.7406 27.8246 27.8156 28.0777 27.8438 28.2559C27.8672 28.4293 27.8906 28.7715 27.8906 29.0152L27.8953 29.4606C28.2609 29.6949 28.3734 29.8262 28.4672 29.9996C28.575 30.1965 28.6078 30.3184 28.6078 30.5152C28.6078 30.6699 28.5703 30.8574 28.5141 30.984C28.4625 31.1012 28.3406 31.2652 28.2375 31.3543C28.1391 31.4434 27.9844 31.5418 27.9047 31.5793C27.8203 31.6121 27.6516 31.6402 27.5297 31.6402C27.4031 31.6402 27.2203 31.6121 27.1219 31.5793C27.0234 31.5512 26.8641 31.4574 26.7703 31.3777C26.6766 31.298 26.5547 31.1434 26.4984 31.0262C26.4234 30.8809 26.3906 30.7355 26.3906 30.5387C26.3906 30.3324 26.4187 30.1918 26.5031 30.0231C26.5875 29.8543 26.6906 29.7371 26.8828 29.6012L27.15 29.4137C27.1172 28.4574 27.0797 28.1809 27.0375 28.0777C27 27.9887 26.9062 27.8434 26.8312 27.7543C26.7562 27.6699 26.6109 27.5527 26.5078 27.4965C26.3391 27.4074 26.2359 27.3981 25.3453 27.3887L24.375 27.3746V32.7418C24.7922 33.1496 25.0219 33.3371 25.1484 33.4262C25.2797 33.5106 25.4953 33.6277 25.6312 33.6887C25.7625 33.7496 26.0437 33.8387 26.25 33.8902C26.4563 33.9418 26.7516 33.984 26.9062 33.984C27.0609 33.984 27.3656 33.9418 27.5859 33.8902C27.8062 33.8387 28.0969 33.7496 28.2328 33.6887C28.3641 33.6277 28.6031 33.4965 28.7578 33.3887C28.9125 33.2856 29.1703 33.0559 29.3344 32.8777C29.5219 32.6762 29.7094 32.4043 29.8312 32.1559C29.9438 31.9356 30.0703 31.5981 30.1125 31.4059L30.1875 31.0543C30.6422 30.9559 30.8813 30.8855 31.0078 30.834C31.1391 30.7824 31.3875 30.6512 31.5703 30.5387C31.7531 30.4262 32.0156 30.2152 32.1609 30.0606C32.3062 29.9106 32.5031 29.6621 32.6016 29.5074C32.7 29.3527 32.8453 29.0574 32.9203 28.8512C33.0375 28.5324 33.0609 28.3777 33.0938 27.7965C33.1219 27.2856 33.1547 27.0512 33.225 26.859C33.2812 26.7184 33.4359 26.4652 33.5766 26.2965C33.7125 26.1277 33.8672 25.9262 33.9234 25.8512C33.9797 25.7762 34.0875 25.5793 34.1672 25.4199C34.2469 25.2559 34.3547 24.9512 34.4062 24.7402C34.4578 24.5246 34.5 24.1871 34.5 23.9902C34.5 23.7746 34.4578 23.4652 34.4016 23.2402C34.35 23.0246 34.2422 22.7246 34.1625 22.5699C34.0875 22.4152 33.9797 22.2277 33.9234 22.1481C33.8672 22.0731 33.7125 21.8715 33.5766 21.7027C33.4359 21.534 33.2812 21.2809 33.225 21.1402C33.1547 20.9481 33.1219 20.7137 33.0938 20.2027C33.0656 19.6309 33.0375 19.4668 32.9297 19.1715C32.8547 18.9793 32.7234 18.6934 32.6344 18.5387C32.5453 18.384 32.3109 18.0981 32.1141 17.9012C31.8422 17.634 31.6594 17.4981 31.3359 17.334C31.0875 17.2121 30.7641 17.0902 30.5484 17.0434L30.1875 16.9684C30.0797 16.4434 29.9719 16.1293 29.8781 15.9371C29.7844 15.7449 29.6438 15.5012 29.5641 15.3981C29.4844 15.2949 29.3344 15.1168 29.2313 15.009C29.1234 14.8965 28.9125 14.7184 28.7578 14.6106C28.6031 14.5074 28.3641 14.3715 28.2328 14.3106C28.0969 14.2496 27.8156 14.1606 27.6094 14.109C27.3891 14.0527 27.0937 14.0152 26.8969 14.0199C26.7047 14.0246 26.3859 14.0715 26.1797 14.1277Z" fill="#DEC8FE"/>
</svg>
