<svg width="48" height="48" viewBox="0 0 48 48" fill="none" xmlns="http://www.w3.org/2000/svg">
<circle cx="24" cy="24" r="24" fill="#FFF0CC"/>
<g clip-path="url(#clip0_279_12220)">
<path fill-rule="evenodd" clip-rule="evenodd" d="M14.0859 12.6562C14.2172 12.6562 14.475 12.7078 14.6859 12.7734C14.8828 12.8391 15.1312 12.9422 15.2344 13.0078C15.3375 13.0734 15.5156 13.2234 15.6328 13.35C15.75 13.4719 15.9094 13.6922 16.125 14.1094H17.7797C19.425 14.1047 19.4297 14.1094 19.5938 14.2125C19.6828 14.2734 19.7953 14.3953 19.8375 14.4844C19.9078 14.625 19.9219 14.7891 19.9219 15.6234C19.9219 16.1578 19.9313 16.5938 19.9453 16.5938C19.9594 16.5938 20.2172 16.4672 20.5219 16.3172C20.8219 16.1625 21.2906 15.9047 21.5625 15.7406C21.8344 15.5813 22.2328 15.3187 22.4484 15.1641C22.6641 15.0094 23.0344 14.7 23.2687 14.4797C23.5172 14.2453 23.7563 14.0625 23.8359 14.0437C23.9156 14.025 24.0516 14.025 24.1406 14.0437C24.2578 14.0672 24.4313 14.1938 24.7313 14.4797C24.9656 14.7 25.3359 15.0094 25.5516 15.1641C25.7672 15.3187 26.1656 15.5813 26.4375 15.7406C26.7094 15.9047 27.1781 16.1625 27.4828 16.3172C27.7828 16.4672 28.0406 16.5938 28.0547 16.5938C28.0688 16.5938 28.0781 16.1578 28.0781 15.6187C28.0781 14.7891 28.0922 14.625 28.1625 14.4844C28.2047 14.3953 28.3172 14.2734 28.4062 14.2125C28.5703 14.1094 28.575 14.1047 31.875 14.1094L32.0297 13.8234C32.1094 13.6641 32.2734 13.4391 32.3906 13.3219C32.5078 13.2047 32.6812 13.0594 32.7797 13.0031C32.8734 12.9422 33.1172 12.8391 33.3187 12.7734C33.5156 12.7078 33.7734 12.6562 33.8906 12.6562C34.0078 12.6562 34.2656 12.7078 34.4672 12.7734C34.6641 12.8391 34.9125 12.9422 35.0156 13.0078C35.1187 13.0734 35.2922 13.2141 35.3953 13.3266C35.5031 13.4344 35.6391 13.6078 35.7 13.7109C35.7609 13.8141 35.85 14.025 35.9062 14.1797C35.9625 14.3484 36 14.5828 36 14.7656C36 14.9391 35.9625 15.2016 35.9109 15.375C35.8594 15.5438 35.7563 15.7734 35.6813 15.8906C35.6109 16.0078 35.4703 16.1813 35.3766 16.2797C35.2828 16.3734 35.1187 16.5047 35.0156 16.5703C34.9125 16.6359 34.7016 16.7297 34.5469 16.7812C34.3594 16.8438 34.1406 16.875 33.8906 16.875C33.6406 16.875 33.4219 16.8438 33.2344 16.7812C33.0797 16.7297 32.8687 16.6359 32.7656 16.5703C32.6625 16.5047 32.4844 16.3547 32.3672 16.2281C32.25 16.1062 32.0953 15.8953 31.8984 15.5156H29.4844V17.2266L30.3141 17.5359C30.7734 17.7094 31.4344 17.9391 31.7812 18.0516C32.25 18.2016 32.4562 18.2906 32.5687 18.3937C32.6531 18.4734 32.7469 18.6141 32.7703 18.7031C32.7938 18.7922 32.8125 19.2984 32.8125 19.8281C32.8125 20.3578 32.7797 21.075 32.7422 21.4219C32.7094 21.7688 32.6578 22.1438 32.6016 22.4531H34.0219C35.2734 22.4531 35.4563 22.4625 35.6063 22.5375C35.7047 22.5797 35.8219 22.6781 35.8734 22.7578C35.925 22.8375 35.9812 22.9734 35.9906 23.0625C36.0047 23.1703 35.9813 23.2969 35.9156 23.4375C35.8594 23.5594 35.7516 23.6859 35.6625 23.7422C35.5172 23.8313 35.4 23.8359 32.3344 23.8828L32.1797 24.4453C32.0953 24.7547 31.9688 25.1719 31.9031 25.3734C31.8375 25.5703 31.7812 25.7437 31.7812 25.7578C31.7812 25.7719 32.2734 25.7859 32.8734 25.7906C33.9141 25.8047 33.9656 25.8094 34.1156 25.9078C34.2047 25.9734 34.2984 26.0953 34.3406 26.2125C34.3875 26.3391 34.4062 26.4797 34.3875 26.5922C34.3734 26.6859 34.3031 26.8313 34.2328 26.9156C34.1578 26.9953 34.0312 27.0891 33.9516 27.1266C33.8344 27.1734 33.4734 27.1875 31.1953 27.1828L31.0641 27.4781C30.9891 27.6422 30.8016 28.0172 30.6375 28.3125C30.4781 28.6078 30.2109 29.0672 30.0422 29.3344C29.8781 29.6016 29.5688 30.0609 28.9688 30.8906H31.8984L32.0109 30.6469C32.0766 30.5062 32.2453 30.2766 32.4094 30.1125C32.5688 29.9531 32.8078 29.775 32.9531 29.7094C33.0938 29.6391 33.3047 29.5641 33.4219 29.5359C33.5391 29.5078 33.75 29.4844 33.8906 29.4844C34.0312 29.4844 34.2563 29.5125 34.3828 29.5453C34.5141 29.5781 34.7109 29.6531 34.8281 29.7047C34.9453 29.7609 35.1469 29.8969 35.2734 30.0141C35.4047 30.1266 35.5734 30.3234 35.6578 30.45C35.7375 30.5766 35.85 30.8156 35.9016 30.9844C35.9578 31.1578 36 31.4109 36 31.5703C36 31.725 35.9719 31.9547 35.9344 32.0859C35.9016 32.2125 35.8219 32.4234 35.7562 32.5547C35.6906 32.6812 35.5406 32.8922 35.4281 33.0234C35.3016 33.1641 35.0859 33.3281 34.8937 33.4313C34.7016 33.5344 34.4391 33.6281 34.2422 33.6609C33.9844 33.7078 33.8438 33.7125 33.5719 33.6656C33.3891 33.6328 33.1125 33.5484 32.9672 33.4734C32.8172 33.3984 32.5922 33.2437 32.4609 33.1312C32.3203 33.0047 32.1609 32.7984 31.8984 32.2969L27.7734 32.3016L27.1406 32.9203C26.7937 33.2625 26.2641 33.7406 25.9688 33.9891C25.6734 34.2328 25.2609 34.5656 25.0547 34.7203C24.8484 34.875 24.5578 35.0766 24.4125 35.175C24.2531 35.2734 24.0797 35.3438 24 35.3438C23.9203 35.3438 23.7469 35.2734 23.5922 35.175C23.4422 35.0812 23.1 34.8328 22.8281 34.6266C22.5562 34.4203 22.1438 34.0875 21.9141 33.8953C21.6844 33.6984 21.2063 33.2625 20.2266 32.3016L16.1016 32.2969L15.9516 32.5922C15.8719 32.7516 15.7031 32.9813 15.5766 33.0984C15.4547 33.2156 15.2203 33.3797 15.0609 33.4594C14.8922 33.5437 14.6156 33.6328 14.4281 33.6656C14.1609 33.7078 14.0156 33.7078 13.7719 33.6656C13.5938 33.6328 13.3312 33.5484 13.1859 33.4734C13.0359 33.3984 12.8109 33.2437 12.6797 33.1312C12.5531 33.0141 12.3797 32.7984 12.2953 32.6437C12.2109 32.4937 12.1125 32.2594 12.075 32.1328C12.0328 32.0016 12 31.7719 12 31.6172C12 31.4625 12.0281 31.2281 12.0609 31.1016C12.0938 30.9703 12.1734 30.7594 12.2344 30.6328C12.2953 30.5016 12.4734 30.2719 12.6281 30.1125C12.7922 29.9531 13.0266 29.775 13.1719 29.7094C13.3125 29.6391 13.5234 29.5641 13.6406 29.5359C13.7578 29.5078 13.9688 29.4844 14.1094 29.4844C14.25 29.4844 14.4609 29.5078 14.5781 29.5359C14.6953 29.5641 14.9062 29.6391 15.0469 29.7094C15.1922 29.775 15.4312 29.9531 15.5906 30.1125C15.7547 30.2766 15.9234 30.5063 16.1016 30.8906H19.0312L18.6469 30.3563C18.4313 30.0609 18.1219 29.6016 17.9578 29.3344C17.7891 29.0672 17.5219 28.6078 17.3625 28.3125C17.1984 28.0172 17.0109 27.6422 16.8047 27.1828L15.5016 27.1875C14.5266 27.1875 14.1656 27.1734 14.0531 27.1266C13.9688 27.0891 13.8422 26.9953 13.7719 26.9156C13.6969 26.8313 13.6266 26.6859 13.6125 26.5875C13.5938 26.4797 13.6125 26.3391 13.6594 26.2125C13.7016 26.0953 13.7953 25.9734 13.8891 25.9078C14.0344 25.8094 14.0859 25.8047 15.1266 25.7906C15.7266 25.7859 16.2188 25.7719 16.2188 25.7578C16.2188 25.7437 16.1625 25.5703 16.0969 25.3688C16.0312 25.1719 15.9047 24.7547 15.6656 23.8828L14.0813 23.8594C12.5953 23.8359 12.4828 23.8313 12.3422 23.7422C12.2578 23.6906 12.1453 23.5641 12.0891 23.4609C12.0141 23.325 11.9906 23.2219 12.0094 23.0859C12.0188 22.9828 12.0703 22.8375 12.1266 22.7578C12.1781 22.6781 12.2953 22.5797 12.3937 22.5328C12.5437 22.4625 12.7266 22.4531 13.9688 22.4531C15.0656 22.4531 15.375 22.4391 15.375 22.3922C15.3703 22.3641 15.3422 22.1344 15.3 21.8906C15.2578 21.6234 15.2203 20.9344 15.2063 20.1797C15.1875 19.3641 15.1922 18.8484 15.225 18.7266C15.2531 18.6188 15.3375 18.4781 15.4312 18.3984C15.5437 18.2906 15.7687 18.1969 16.2891 18.0281C16.6734 17.9063 17.3344 17.6766 18.5156 17.25V15.5156H16.1016L15.975 15.7641C15.9047 15.8953 15.75 16.1062 15.6328 16.2281C15.5156 16.3547 15.3375 16.5047 15.2344 16.5703C15.1312 16.6359 14.9203 16.7297 14.7656 16.7812C14.5781 16.8438 14.3594 16.875 14.1094 16.875C13.8594 16.875 13.6406 16.8438 13.4531 16.7812C13.2984 16.7297 13.0922 16.6359 12.9938 16.575C12.9 16.5141 12.7266 16.3734 12.6141 16.2609C12.5016 16.1484 12.3609 15.9703 12.3 15.8672C12.2391 15.7641 12.15 15.5531 12.0938 15.3984C12.0375 15.2297 12 14.9953 12 14.8125C12 14.6391 12.0375 14.3766 12.0891 14.2031C12.1406 14.0344 12.2438 13.8047 12.3188 13.6875C12.3891 13.5703 12.5344 13.3969 12.6375 13.2938C12.7359 13.1953 12.9 13.0641 12.9938 13.0031C13.0922 12.9422 13.3266 12.8391 13.5094 12.7781C13.6969 12.7125 13.9547 12.6609 14.0859 12.6562ZM22.6406 19.0875C22.3359 19.2375 22.1625 19.3641 21.8906 19.6359C21.6938 19.8375 21.4734 20.1141 21.3891 20.2734C21.3047 20.4281 21.1922 20.6812 21.1406 20.8359C21.0703 21.0281 21.0281 21.2859 21.0094 21.6656L20.9766 22.2188C20.7656 22.3078 20.6203 22.4203 20.5172 22.5234C20.4141 22.6266 20.2828 22.8047 20.2313 22.9219C20.1375 23.1281 20.1328 23.1938 20.1328 25.4297V27.7266C20.325 28.125 20.475 28.3219 20.5828 28.4203C20.7 28.5187 20.8922 28.6266 21.0234 28.6688C21.2156 28.725 21.7312 28.7344 24 28.7344C26.2688 28.7344 26.7844 28.725 26.9766 28.6688C27.1078 28.6266 27.3 28.5187 27.4172 28.4203C27.525 28.3219 27.675 28.125 27.7453 27.9844L27.8672 27.7266C27.8906 24.3469 27.8766 23.4375 27.8484 23.25C27.8109 23.0391 27.75 22.8797 27.6469 22.725C27.5625 22.6031 27.3844 22.4344 27.2484 22.35L27.0047 22.1953C27 21.5531 26.9625 21.2531 26.9062 21.0234C26.85 20.8172 26.7281 20.5031 26.6344 20.3203C26.5266 20.1094 26.3344 19.8656 26.1094 19.6359C25.8375 19.3641 25.6641 19.2375 25.3594 19.0875C25.1391 18.9797 24.8156 18.8578 24.6328 18.8203C24.45 18.7828 24.1594 18.7547 23.9766 18.7547C23.7937 18.7547 23.5125 18.7875 23.3438 18.825C23.175 18.8578 22.8609 18.975 22.6406 19.0875ZM24.0703 20.1703C24.2953 20.1797 24.4828 20.2219 24.6562 20.3016C24.7969 20.3672 25.0078 20.5125 25.125 20.625C25.2375 20.7422 25.3828 20.9531 25.4484 21.0938C25.5422 21.2906 25.5703 21.4406 25.5938 22.125H22.4062L22.4203 21.7406C22.4297 21.4453 22.4578 21.2906 22.5516 21.0938C22.6172 20.9531 22.7625 20.7422 22.875 20.6297C22.9922 20.5172 23.1469 20.3953 23.2266 20.3531C23.3016 20.3156 23.4516 20.2547 23.5547 20.2172C23.6625 20.1844 23.8828 20.1609 24.0703 20.1703ZM26.4609 23.5547L26.4844 27.3281H21.5156L21.5063 25.4625C21.5016 24.4359 21.5156 23.5781 21.5391 23.5641C21.5625 23.5453 22.6781 23.5359 26.4609 23.5547ZM23.5125 24.6937C23.4656 24.7359 23.3953 24.8437 23.3625 24.9281C23.325 25.0125 23.2969 25.2422 23.2969 25.4531C23.2969 25.7297 23.3203 25.875 23.3859 26.0062C23.4375 26.1047 23.55 26.2219 23.6531 26.2828C23.7563 26.3391 23.9062 26.3859 23.9859 26.3906C24.0703 26.3906 24.225 26.3484 24.3281 26.2969C24.4531 26.2344 24.5469 26.1406 24.6094 26.0156C24.6797 25.875 24.7031 25.7344 24.7031 25.4531C24.7031 25.2422 24.675 25.0125 24.6375 24.9281C24.6047 24.8437 24.525 24.7266 24.4641 24.675C24.4031 24.6187 24.3 24.5578 24.2344 24.5391C24.1687 24.525 24.0844 24.5016 24.0469 24.4922C24.0094 24.4828 23.8922 24.5063 23.7891 24.5438C23.6859 24.5813 23.5641 24.6469 23.5125 24.6937Z" fill="#FFD25D"/>
</g>
<defs>
<clipPath id="clip0_279_12220">
<rect width="24" height="24" fill="white" transform="translate(12 12)"/>
</clipPath>
</defs>
</svg>
