<svg width="48" height="48" viewBox="0 0 48 48" fill="none" xmlns="http://www.w3.org/2000/svg">
<circle cx="24" cy="24" r="24" fill="#704FE6"/>
<path d="M24 22C28.418 22 32 20.21 32 18C32 15.79 28.418 14 24 14C19.582 14 16 15.79 16 18C16 20.21 19.582 22 24 22Z" fill="white"/>
<path opacity="0.5" d="M16 24V30C16 32.21 19.582 34 24 34C28.418 34 32 32.21 32 30V24C32 26.21 28.418 28 24 28C19.582 28 16 26.21 16 24Z" fill="white"/>
<path opacity="0.7" d="M16 18V24C16 26.21 19.582 28 24 28C28.418 28 32 26.21 32 24V18C32 20.21 28.418 22 24 22C19.582 22 16 20.21 16 18Z" fill="white"/>
</svg>
