<svg width="48" height="48" viewBox="0 0 48 48" fill="none" xmlns="http://www.w3.org/2000/svg">
<circle cx="24" cy="24" r="24" fill="#DEC8FE"/>
<path fill-rule="evenodd" clip-rule="evenodd" d="M15.464 15.464C14 16.93 14 19.286 14 24C14 28.714 14 31.071 15.464 32.535C16.93 34 19.286 34 24 34C28.714 34 31.071 34 32.535 32.535C34 31.072 34 28.714 34 24C34 19.286 34 16.929 32.535 15.464C31.072 14 28.714 14 24 14C19.286 14 16.929 14 15.464 15.464ZM25.488 18.446C25.6799 18.4976 25.8436 18.6232 25.943 18.7953C26.0423 18.9675 26.0693 19.172 26.018 19.364L23.43 29.024C23.4045 29.1191 23.3604 29.2083 23.3004 29.2864C23.2404 29.3646 23.1656 29.4301 23.0803 29.4793C22.9079 29.5787 22.7031 29.6056 22.511 29.554C22.3189 29.5024 22.1551 29.3766 22.0557 29.2043C21.9563 29.0319 21.9294 28.8271 21.981 28.635L24.57 18.976C24.6216 18.7841 24.7472 18.6204 24.9193 18.521C25.0915 18.4217 25.296 18.3947 25.488 18.446ZM26.97 20.47C27.1106 20.3295 27.3012 20.2507 27.5 20.2507C27.6988 20.2507 27.8894 20.3295 28.03 20.47L28.239 20.678C28.874 21.313 29.404 21.843 29.768 22.32C30.152 22.824 30.422 23.356 30.422 24C30.422 24.644 30.152 25.176 29.768 25.68C29.404 26.157 28.874 26.687 28.238 27.322L28.03 27.53C27.9613 27.6037 27.8785 27.6628 27.7865 27.7038C27.6945 27.7448 27.5952 27.7668 27.4945 27.7686C27.3938 27.7704 27.2938 27.7518 27.2004 27.7141C27.107 27.6764 27.0222 27.6203 26.951 27.549C26.8797 27.4778 26.8236 27.393 26.7859 27.2996C26.7482 27.2062 26.7296 27.1062 26.7314 27.0055C26.7332 26.9048 26.7552 26.8055 26.7962 26.7135C26.8372 26.6215 26.8963 26.5387 26.97 26.47L27.141 26.298C27.823 25.616 28.28 25.158 28.575 24.77C28.858 24.4 28.922 24.184 28.922 24C28.922 23.816 28.858 23.6 28.575 23.23C28.28 22.843 27.823 22.384 27.141 21.702L26.97 21.53C26.8295 21.3894 26.7507 21.1988 26.7507 21C26.7507 20.8012 26.8295 20.6106 26.97 20.47ZM19.97 20.47C20.1122 20.3375 20.3002 20.2654 20.4945 20.2688C20.6888 20.2723 20.8742 20.351 21.0116 20.4884C21.149 20.6258 21.2277 20.8112 21.2312 21.0055C21.2346 21.1998 21.1625 21.3878 21.03 21.53L20.859 21.702C20.177 22.384 19.721 22.842 19.425 23.23C19.142 23.6 19.079 23.816 19.079 24C19.079 24.184 19.142 24.4 19.425 24.77C19.721 25.157 20.177 25.616 20.859 26.298L21.031 26.47C21.1026 26.5392 21.1597 26.622 21.199 26.7135C21.2382 26.805 21.2589 26.9035 21.2597 27.0031C21.2605 27.1026 21.2415 27.2014 21.2037 27.2935C21.166 27.3857 21.1102 27.4694 21.0398 27.5398C20.9693 27.6102 20.8856 27.6658 20.7934 27.7035C20.7012 27.7412 20.6024 27.7601 20.5028 27.7592C20.4033 27.7583 20.3049 27.7375 20.2134 27.6982C20.1219 27.6588 20.0392 27.6017 19.97 27.53L19.762 27.322C19.126 26.687 18.596 26.157 18.232 25.68C17.848 25.176 17.579 24.644 17.579 24C17.579 23.356 17.849 22.824 18.232 22.32C18.596 21.843 19.126 21.313 19.762 20.678L19.97 20.47Z" fill="#704FE6"/>
</svg>
