<svg width="48" height="48" viewBox="0 0 48 48" fill="none" xmlns="http://www.w3.org/2000/svg">
<circle cx="24" cy="24" r="24" fill="#FFF0CC"/>
<g clip-path="url(#clip0_279_12199)">
<path d="M15.3939 12.4594C15.3377 12.5016 15.2674 12.5859 15.2393 12.6422C15.2018 12.7172 15.1877 13.6594 15.1877 15.8531C15.1877 17.7281 15.2064 19.0922 15.2393 19.2891C15.2627 19.4672 15.3377 19.7766 15.4033 19.9688C15.4689 20.1609 15.6096 20.4703 15.7127 20.6484C15.8205 20.8266 16.0643 21.1359 16.2611 21.3281C16.458 21.525 16.7439 21.7594 16.8986 21.8531C17.0533 21.9516 17.3486 22.0875 17.5549 22.1625C17.7611 22.2422 18.0986 22.3266 18.3049 22.3594C18.5205 22.3922 18.8299 22.4062 19.0314 22.3875C19.2236 22.3734 19.533 22.3172 19.7111 22.2656C19.8893 22.2141 20.1564 22.1156 20.2971 22.05C20.4377 21.9844 20.6814 21.8391 20.8361 21.7313C20.9908 21.6188 21.2439 21.3937 21.3986 21.2297C21.5533 21.0656 21.7596 20.8031 21.8533 20.6484C21.9471 20.4937 22.0877 20.1984 22.1674 19.9922C22.2424 19.7859 22.3268 19.4484 22.3596 19.2422C22.3924 18.9797 22.4064 17.9109 22.3971 15.7359L22.383 12.6C22.1064 12.3797 22.0689 12.375 21.408 12.375C20.8268 12.375 20.7002 12.3891 20.6018 12.4594C20.5361 12.5016 20.4658 12.5719 20.4471 12.6094C20.4283 12.6469 20.4049 14.1562 20.3908 15.9609L20.3674 19.2422C20.1658 19.6219 20.0486 19.8047 19.9736 19.8891C19.9033 19.9688 19.7064 20.1141 19.5424 20.2031C19.2611 20.3578 19.2143 20.3672 18.8205 20.3672C18.4971 20.3672 18.3518 20.3437 18.1877 20.2687C18.0705 20.2172 17.883 20.0906 17.7705 19.9875C17.658 19.8891 17.5174 19.7297 17.4611 19.6406C17.4049 19.5516 17.3299 19.4016 17.2924 19.3125C17.2408 19.1766 17.2221 18.5391 17.2033 15.8766L17.1799 12.6C16.9033 12.3797 16.8658 12.375 16.1955 12.375C15.6002 12.375 15.4783 12.3891 15.3939 12.4594ZM24.5393 12.5063C24.4361 12.6094 24.4033 12.675 24.4127 12.8016C24.4221 12.9281 24.7268 13.3828 25.9455 15.0938C27.2299 16.8984 27.4643 17.25 27.4689 17.3906C27.4689 17.5312 27.2627 17.8453 25.9455 19.7016C24.7127 21.4359 24.4221 21.8719 24.4221 21.9984C24.4174 22.0781 24.4596 22.2 24.5111 22.2656C24.6002 22.3781 24.6189 22.3828 25.2752 22.3969C25.8799 22.4109 25.9549 22.4062 26.0627 22.3219C26.1283 22.275 26.6439 21.5812 27.2111 20.7844C27.7783 19.9875 28.2893 19.2891 28.3455 19.2328C28.4018 19.1719 28.5049 19.125 28.5799 19.125C28.6502 19.125 28.7533 19.1531 28.8049 19.1859C28.8564 19.2234 29.3861 19.9313 29.9768 20.7656C30.5674 21.5953 31.0971 22.3078 31.1486 22.3406C31.2143 22.3875 31.4205 22.4062 31.8752 22.4062C32.4236 22.4109 32.5221 22.3969 32.6252 22.3219C32.6908 22.275 32.7564 22.1766 32.7799 22.1109C32.7986 22.0266 32.7893 21.9328 32.7377 21.8297C32.7002 21.75 32.0018 20.7516 31.1955 19.6172C30.0799 18.0563 29.7236 17.5219 29.7189 17.4141C29.7143 17.3016 30.0236 16.8375 31.2424 15.1172C32.0814 13.9313 32.7799 12.9187 32.7939 12.8672C32.808 12.8156 32.7939 12.7125 32.7564 12.6422C32.7236 12.5672 32.6486 12.4781 32.5924 12.4406C32.5127 12.3937 32.3158 12.375 31.8658 12.375C31.2893 12.375 31.233 12.3844 31.1205 12.4828C31.0502 12.5391 30.5252 13.2516 29.9533 14.0625C29.3814 14.8734 28.8752 15.5672 28.833 15.6C28.7908 15.6328 28.683 15.6562 28.5939 15.6562C28.4861 15.6562 28.3971 15.6234 28.3268 15.5531C28.2705 15.4922 27.7689 14.8031 27.2111 14.0156C26.6533 13.2281 26.1424 12.5391 26.0721 12.4828C25.9549 12.3844 25.8986 12.375 25.308 12.375C24.6752 12.375 24.6752 12.375 24.5393 12.5063ZM12.2346 23.6625C12.1408 23.7047 12.0518 23.7984 12.0236 23.8687C11.9908 23.9578 11.9908 24.0422 12.0236 24.1266C12.0518 24.2016 12.1408 24.2953 12.2346 24.3375C12.3893 24.4172 13.0502 24.4219 24.0002 24.4219C34.9502 24.4219 35.6111 24.4172 35.7658 24.3375C35.8596 24.2953 35.9486 24.2016 35.9768 24.1266C36.0096 24.0422 36.0096 23.9578 35.9768 23.8687C35.9486 23.7984 35.8596 23.7047 35.7658 23.6625C35.6111 23.5828 34.9502 23.5781 24.0002 23.5781C13.0502 23.5781 12.3893 23.5828 12.2346 23.6625ZM15.3424 25.7062L15.2111 25.8187C15.2111 32.2172 15.2205 32.5359 15.2955 32.8359C15.3424 33.0187 15.4736 33.3563 15.5861 33.5859C15.6986 33.8156 15.8955 34.1344 16.0221 34.2891C16.1486 34.4438 16.4018 34.6828 16.5752 34.8187C16.7533 34.9594 17.0439 35.1422 17.2268 35.2313C17.4049 35.3203 17.7658 35.4422 18.0236 35.5078C18.2814 35.5734 18.6189 35.625 18.7736 35.625C18.9283 35.625 19.2658 35.5734 19.5236 35.5078C19.7814 35.4422 20.1611 35.3109 20.3674 35.2078C20.5736 35.1047 20.883 34.9031 21.0564 34.7625C21.2346 34.6172 21.4689 34.3781 21.5861 34.2328C21.7033 34.0828 21.8814 33.8016 21.9799 33.6094C22.083 33.4172 22.2143 33.0984 22.2705 32.9062C22.3783 32.5547 22.3783 32.5453 22.3924 29.2125L22.4064 25.875L22.1252 25.5938C20.6955 25.5938 20.6674 25.5984 20.5408 25.7062L20.4143 25.8187L20.3674 32.4141C20.1752 32.8172 20.0064 33.0328 19.8658 33.1641C19.7064 33.3188 19.5283 33.4359 19.3596 33.4922C19.1955 33.5484 18.9799 33.5812 18.7736 33.5812C18.5205 33.5812 18.3846 33.5531 18.1877 33.4594C18.0471 33.3937 17.8361 33.2578 17.7236 33.1594C17.6064 33.0516 17.4611 32.8547 17.3721 32.6719L17.2268 32.3672L17.1799 25.8187C16.9268 25.5984 16.8986 25.5938 16.2002 25.5938C15.5018 25.5938 15.4689 25.5984 15.3424 25.7062ZM24.9377 25.7297L24.8064 25.8656L24.7971 27.3281L25.0783 27.6094H27.7502L27.9846 27.8438C27.9799 32.6906 27.9658 33.3703 27.9236 33.4266C27.8908 33.4688 27.8205 33.525 27.7596 33.5531C27.6893 33.5906 27.2533 33.6094 26.3533 33.6094C25.1158 33.6094 25.0502 33.6141 24.9471 33.7031C24.8908 33.7547 24.8299 33.8438 24.8158 33.9047C24.8018 33.9609 24.7971 34.3219 24.8064 34.7016L24.8205 35.4L25.1018 35.625C32.2408 35.625 32.5174 35.6156 32.6064 35.5406C32.6627 35.4984 32.733 35.4141 32.7611 35.3578C32.7939 35.2922 32.8127 34.9781 32.8127 34.5703C32.8127 33.9141 32.808 33.8859 32.6955 33.75L32.5783 33.6094C30.1924 33.6094 29.9299 33.5953 29.8127 33.5391C29.7143 33.4922 29.658 33.4125 29.6205 33.2953C29.5877 33.1781 29.5783 32.2359 29.5877 30.4828L29.6018 27.8484C29.8127 27.6328 29.8361 27.6328 31.1955 27.6094C32.5549 27.5859 32.5783 27.5859 32.6814 27.4781C32.7846 27.375 32.7893 27.3422 32.7893 26.5969V25.8187L32.5314 25.5938H25.0689L24.9377 25.7297Z" fill="#FFD25D"/>
</g>
<defs>
<clipPath id="clip0_279_12199">
<rect width="24" height="24" fill="white" transform="translate(12 12)"/>
</clipPath>
</defs>
</svg>
