<svg width="48" height="48" viewBox="0 0 48 48" fill="none" xmlns="http://www.w3.org/2000/svg">
<circle cx="24" cy="24" r="24" fill="#DEC8FE"/>
<path fill-rule="evenodd" clip-rule="evenodd" d="M21.4688 13.2242C26.1 13.2195 26.1844 13.2195 26.5781 13.3179C26.7984 13.3695 27.1219 13.4914 27.3047 13.5851C27.5109 13.6929 27.75 13.8757 27.9516 14.0726C28.1859 14.3117 28.3125 14.4898 28.4484 14.7757C28.5516 14.9914 28.6547 15.2773 28.6828 15.4086C28.7156 15.5632 28.7344 16.3086 28.7344 17.3445C28.7344 18.6617 28.7203 19.032 28.6734 19.032C28.6453 19.032 28.4906 19.0929 28.3359 19.1679C28.1812 19.2382 27.9656 19.3929 27.8531 19.5054C27.7406 19.6179 27.5906 19.8382 27.5203 19.9929C27.4453 20.1476 27.2953 20.5461 27.1875 20.8836C27.0797 21.2211 26.9719 21.5117 26.9484 21.5398C26.9297 21.5679 26.8969 21.5164 26.8781 21.4226C26.8641 21.3336 26.7984 21.1601 26.7375 21.0336C26.6766 20.9117 26.5641 20.7429 26.4938 20.6632C26.4188 20.5789 26.2547 20.4429 26.1281 20.3586C26.0016 20.2742 25.7625 20.1711 25.5938 20.1289C25.3828 20.0773 25.2047 20.0632 25.0078 20.082C24.8484 20.1007 24.5953 20.1711 24.4219 20.2554C24.1547 20.382 23.9625 20.5507 22.8422 21.6711C21.8016 22.7117 21.5484 22.9929 21.45 23.2039C21.3844 23.3445 21.3094 23.5789 21.2812 23.7195C21.2438 23.9023 21.2438 24.057 21.2812 24.2586C21.3094 24.4132 21.3844 24.657 21.45 24.7976C21.5484 25.0086 21.8016 25.2898 22.8422 26.3304C23.9625 27.4507 24.1547 27.6195 24.4219 27.7461C24.6 27.8304 24.8438 27.9007 25.0078 27.9195C25.2844 27.9476 25.2937 27.9523 25.4062 28.1586C25.4719 28.2757 25.6172 28.4586 25.7344 28.5617C25.8516 28.6695 26.0625 28.8101 26.2031 28.8757C26.4234 28.9742 26.5266 28.9929 26.9062 28.9929C27.3141 28.9929 27.3797 28.9789 27.6562 28.8429C27.8391 28.7539 28.0453 28.6039 28.1719 28.4679C28.2844 28.3461 28.4344 28.1164 28.5047 27.9617C28.5703 27.807 28.65 27.6289 28.6781 27.5632C28.7156 27.4789 28.7297 28.1023 28.7297 29.8976C28.7344 31.482 28.7156 32.4289 28.6828 32.5929C28.6547 32.7242 28.5469 33.0148 28.4391 33.2351C28.2984 33.5164 28.1531 33.7226 27.9375 33.9429C27.7078 34.1773 27.5344 34.2945 27.2344 34.4398C27.0141 34.5476 26.6766 34.6648 26.4844 34.707C26.175 34.7726 25.5938 34.782 16.8047 34.782L16.3594 34.6648C16.0969 34.5945 15.7875 34.4679 15.6094 34.3648C15.4406 34.2664 15.1687 34.0367 15.0047 33.8632C14.7937 33.6382 14.6484 33.4226 14.5266 33.1648C14.4281 32.9586 14.3297 32.6632 14.3016 32.5086C14.2641 32.3117 14.25 29.7336 14.25 24.0007C14.25 18.2679 14.2641 15.6898 14.3016 15.4929C14.3297 15.3382 14.4375 15.0336 14.5406 14.8132C14.6906 14.4945 14.7984 14.3445 15.0844 14.0586C15.3281 13.8195 15.5438 13.6554 15.75 13.557C15.9188 13.4726 16.2141 13.3648 16.4062 13.3179C16.7391 13.2336 16.9875 13.2289 21.4688 13.2242ZM17.8687 15.6804C18.1547 16.3789 18.2484 16.5617 18.4266 16.7586C18.5531 16.8945 18.7453 17.0398 18.8953 17.1101L19.1484 17.2273H23.8828C24.3797 16.9554 24.5484 16.8148 24.6469 16.6836C24.7359 16.5711 24.9609 16.0929 25.1531 15.6242L25.5 14.7664C19.3219 14.7664 17.5312 14.7804 17.5312 14.8039C17.5312 14.8226 17.6859 15.2164 17.8687 15.6804ZM18.9047 31.0273C18.8484 31.107 18.7828 31.2429 18.7687 31.3273C18.7547 31.407 18.7547 31.557 18.7687 31.6554C18.7828 31.7586 18.8578 31.8992 18.9516 31.9976C19.0312 32.0867 19.1766 32.1851 19.2656 32.2086C19.3641 32.2367 20.2781 32.2507 21.5953 32.2414C23.7047 32.2273 23.7609 32.2226 23.8922 32.1289C23.9625 32.0773 24.0703 31.9601 24.1312 31.8711C24.2016 31.7632 24.2391 31.6414 24.2391 31.5007C24.2391 31.3601 24.2016 31.2382 24.1312 31.1304C24.0703 31.0414 23.9625 30.9242 23.8922 30.8726C23.7609 30.7742 23.7094 30.7742 21.5484 30.7648C19.7859 30.7554 19.3031 30.7648 19.1766 30.8164C19.0875 30.8492 18.9656 30.9429 18.9047 31.0273ZM30.9562 21.0945C31.0359 21.1132 31.1437 21.1507 31.1953 21.1789C31.2469 21.207 31.8422 21.7836 33.7453 23.6961V24.3054L32.5172 25.5382C31.8422 26.2179 31.2234 26.8086 31.1484 26.8461C31.0734 26.8836 30.9234 26.9164 30.8203 26.9164C30.7172 26.9164 30.5672 26.8836 30.4922 26.8461C30.4172 26.8086 30.3188 26.7382 30.2766 26.6914C30.2344 26.6398 30.1734 26.5507 30.1406 26.4851C30.1078 26.4195 30.0844 26.2836 30.0844 26.1804C30.0844 26.0773 30.1078 25.9414 30.1406 25.8757C30.1734 25.8101 30.5906 25.3648 31.9453 24.0007L31.0734 23.1242C30.5906 22.6367 30.1734 22.1914 30.1406 22.1257C30.1078 22.0601 30.0844 21.9148 30.0891 21.7976C30.0891 21.6804 30.1266 21.5257 30.1734 21.4507C30.2203 21.3757 30.3094 21.2773 30.375 21.2257C30.4406 21.1789 30.5625 21.1226 30.6516 21.0992C30.7406 21.0804 30.8766 21.0804 30.9562 21.0945ZM29.0719 19.9695C29.1469 19.9695 29.2734 19.9976 29.3531 20.0351C29.4375 20.0679 29.5641 20.157 29.6344 20.232C29.7 20.307 29.7797 20.457 29.8078 20.5695C29.8594 20.7617 29.8219 20.8836 28.7297 24.1789C28.0406 26.2554 27.5531 27.6476 27.4875 27.7414C27.4219 27.8257 27.2906 27.9242 27.1734 27.9664C27.0516 28.0132 26.9156 28.032 26.8125 28.0132C26.7234 27.9992 26.5781 27.9429 26.4938 27.8914C26.4094 27.8398 26.3016 27.7086 26.25 27.6007C26.1984 27.4882 26.1562 27.3476 26.1562 27.282C26.1562 27.2164 26.6672 25.6367 27.2906 23.7664C27.9141 21.8961 28.4719 20.307 28.5281 20.232C28.5797 20.157 28.6969 20.0679 28.7859 20.0351C28.875 20.0023 29.0016 19.9742 29.0719 19.9695ZM25.3547 21.1039C25.4484 21.1226 25.575 21.1742 25.6359 21.2211C25.6969 21.2679 25.7859 21.3804 25.8328 21.4695C25.8844 21.5586 25.9219 21.7132 25.9219 21.8117C25.9219 21.9054 25.8984 22.0414 25.8703 22.1164C25.8422 22.1867 25.4297 22.6367 24.0703 24.0007L24.9703 24.9007C25.7531 25.6929 25.8703 25.8289 25.8984 25.9929C25.9172 26.0961 25.9219 26.2554 25.9031 26.3445C25.8844 26.4336 25.8328 26.5648 25.7812 26.6398C25.7297 26.7101 25.6172 26.7992 25.5328 26.8414C25.4531 26.8836 25.3078 26.9164 25.2188 26.9164C25.1297 26.9164 25.0031 26.9023 24.9375 26.8836C24.8719 26.8648 24.2766 26.3117 23.6109 25.6507C22.9453 24.9851 22.3687 24.3898 22.3312 24.3195C22.2937 24.2445 22.2656 24.1039 22.2656 24.0007C22.2656 23.8976 22.2937 23.757 22.3312 23.6867C22.3687 23.6117 22.9453 23.0117 23.6109 22.3507C24.6422 21.3195 24.8484 21.1367 25.0031 21.1039C25.1016 21.0804 25.2609 21.0804 25.3547 21.1039Z" fill="#704FE6"/>
</svg>
