<svg width="24" height="24" viewBox="0 0 24 24" fill="none" xmlns="http://www.w3.org/2000/svg">
<path d="M8.32031 2.12774C8.11406 2.18399 7.8375 2.27774 7.71094 2.33868C7.57969 2.39493 7.35 2.53555 7.19531 2.64336C7.04063 2.75586 6.80156 2.97149 6.66094 3.12149C6.525 3.27149 6.32812 3.54805 6.22969 3.72618C6.13125 3.9043 6.04688 4.10586 6.04688 4.17149C6.04688 4.23711 6.13125 4.4668 6.24375 4.68711C6.37031 4.94493 6.54375 5.19336 6.73125 5.39024C6.91406 5.58711 7.13438 5.75586 7.34063 5.86836C7.51875 5.96211 7.79063 6.07461 7.94531 6.12149C8.14687 6.18243 8.4 6.20586 8.82656 6.20586C9.4125 6.21055 9.43125 6.21524 9.52031 6.32774C9.57188 6.39336 9.61406 6.4918 9.60938 6.55274C9.60938 6.60899 9.55781 6.71211 9.49688 6.78711L9.38437 6.91368C7.95 6.90899 7.87031 6.89961 7.52344 6.78243C7.31719 6.70743 6.99844 6.55743 6.82031 6.44493C6.64219 6.33711 6.36562 6.11211 6.21094 5.94805C6.05625 5.78399 5.84531 5.51211 5.74687 5.34336C5.64375 5.17461 5.55937 5.03399 5.55937 5.02461C5.55469 5.01524 5.42812 5.04336 5.27344 5.08555C5.11875 5.12774 4.82344 5.24961 4.61719 5.35743C4.35469 5.49336 4.13438 5.65743 3.88594 5.90586C3.68906 6.09805 3.45 6.39336 3.35625 6.56211C3.25781 6.73086 3.12187 7.02618 3.05625 7.21836C2.9625 7.49493 2.92969 7.71055 2.90625 8.22618C2.87812 8.71368 2.84531 8.94805 2.775 9.14024C2.71875 9.28086 2.55938 9.53868 2.41406 9.7168C2.27344 9.89024 2.08594 10.1434 2.00156 10.2793C1.91719 10.4106 1.8 10.6309 1.74375 10.7574C1.69219 10.8887 1.6125 11.1465 1.575 11.334C1.53281 11.5168 1.5 11.8309 1.5 12.0231C1.5 12.2152 1.53281 12.5152 1.575 12.6934C1.6125 12.8668 1.69219 13.1152 1.74844 13.2418C1.8 13.3731 1.91719 13.5887 2.00156 13.7246C2.08594 13.8559 2.27344 14.109 2.41406 14.2871C2.55938 14.4606 2.71875 14.7184 2.775 14.859C2.84531 15.0512 2.87812 15.2902 2.90625 15.7965C2.93438 16.2934 2.97187 16.5606 3.04688 16.7809C3.10312 16.9496 3.225 17.2215 3.31875 17.3902C3.4125 17.559 3.61875 17.8309 3.77812 17.9996C3.93281 18.1684 4.2 18.3934 4.36406 18.5012C4.52812 18.609 4.8375 18.7637 5.05313 18.8434C5.26406 18.9184 5.45156 18.984 5.475 18.984C5.49375 18.984 5.58281 18.8715 5.67188 18.7402C5.76094 18.609 5.9625 18.3887 6.11719 18.2481C6.27187 18.1074 6.56719 17.9152 6.77344 17.8121C6.97969 17.7137 7.31719 17.5918 7.52344 17.5496C7.78125 17.4887 8.08125 17.4652 8.48438 17.4652C8.80781 17.4699 9.15 17.4934 9.24844 17.5215C9.34219 17.5543 9.44063 17.6199 9.46875 17.6715C9.49687 17.7231 9.51562 17.8309 9.51562 17.9059C9.51562 17.9856 9.47344 18.0887 9.42188 18.1402C9.3375 18.2246 9.27187 18.234 8.61094 18.2246C8.04844 18.2152 7.83281 18.234 7.59375 18.2996C7.425 18.3465 7.18125 18.4402 7.05469 18.5059C6.92344 18.5715 6.71719 18.7215 6.59063 18.8387C6.46406 18.9559 6.27656 19.1809 6.17813 19.3356C6.07969 19.4902 6 19.6637 6 19.7246C6 19.7809 6.08437 19.9918 6.18281 20.1934C6.29062 20.3949 6.49687 20.6949 6.66562 20.8777C6.82969 21.0559 7.0875 21.2856 7.24219 21.3887C7.39687 21.4965 7.63594 21.6277 7.77188 21.6887C7.90313 21.7496 8.19375 21.8387 8.41406 21.8902C8.63438 21.9418 8.93438 21.984 9.08438 21.984C9.22969 21.984 9.52969 21.9418 9.75 21.8902C9.97031 21.834 10.3266 21.7027 10.5469 21.5949C10.8047 21.4637 11.0578 21.2902 11.2828 21.084L11.625 20.7652V11.0152C11.3906 11.0481 11.1609 11.0715 10.9688 11.0902C10.7484 11.109 10.4578 11.0949 10.1953 11.0574C9.96562 11.0199 9.59531 10.9965 9.375 11.0012C9.15469 11.0012 8.84062 11.0434 8.67188 11.0856C8.50313 11.1277 8.26406 11.2215 8.1375 11.2871C8.01094 11.3574 7.79531 11.5402 7.65937 11.6949C7.43906 11.9387 7.3875 11.9762 7.2375 11.9762C7.11562 11.9762 7.04531 11.9434 6.97969 11.859C6.92812 11.7934 6.89062 11.6809 6.89062 11.6012C6.89062 11.5215 6.96094 11.3715 7.05 11.2496C7.13906 11.1324 7.32188 10.9496 7.45781 10.8465C7.59844 10.7387 7.79531 10.6074 7.89844 10.5559C8.00156 10.5043 8.175 10.4387 8.2875 10.4106L8.48438 10.359C8.15156 9.9418 7.99219 9.69336 7.91719 9.53868C7.84219 9.38399 7.77187 9.18711 7.75781 9.10743C7.73906 8.98086 7.7625 8.92461 7.87031 8.81211C7.94531 8.73711 8.04375 8.67149 8.08125 8.67149C8.12344 8.67149 8.20781 8.69024 8.27344 8.71836C8.35781 8.75118 8.4375 8.86836 8.54531 9.10743C8.62969 9.29024 8.79375 9.54805 8.90625 9.67461C9.02344 9.79649 9.20156 9.95118 9.30469 10.0121C9.40781 10.0731 9.61875 10.1668 9.77344 10.2231C10.0125 10.3121 10.1484 10.3262 10.6641 10.3215C11.0016 10.3215 11.3484 10.3027 11.4375 10.2793L11.6016 10.2371L11.625 3.23399C11.0578 2.70899 10.8047 2.53555 10.5469 2.4043C10.3266 2.29649 9.975 2.16524 9.75937 2.11368C9.52969 2.05274 9.23906 2.01524 9.0375 2.01993C8.84531 2.02461 8.52656 2.07149 8.32031 2.12774ZM14.1797 2.12774C13.9734 2.18399 13.7109 2.27305 13.5938 2.32461C13.4766 2.37618 13.2797 2.48868 13.1484 2.57774C13.0219 2.6668 12.7922 2.8543 12.6422 2.99493L12.3703 3.25743L12.375 8.62461C14.2359 8.60118 14.3391 8.5918 14.5078 8.50274C14.6109 8.44649 14.7562 8.3293 14.8312 8.24493C14.9062 8.15586 15 8.01055 15.0375 7.92149C15.0797 7.81836 15.1172 7.53243 15.1312 7.17149L15.1594 6.58555C14.8547 6.38399 14.7188 6.28086 14.6672 6.22461C14.6109 6.16368 14.5266 6.03243 14.4797 5.9293C14.4234 5.81211 14.3906 5.63399 14.3906 5.46055C14.3906 5.26368 14.4234 5.11836 14.4984 4.97305C14.5547 4.85586 14.6766 4.70118 14.7703 4.62149C14.8641 4.5418 15.0234 4.44805 15.1219 4.41993C15.2203 4.38711 15.4031 4.35899 15.5297 4.35899C15.6516 4.35899 15.8203 4.38711 15.9047 4.41993C15.9844 4.45743 16.1391 4.55586 16.2375 4.64493C16.3406 4.73399 16.4625 4.89805 16.5141 5.01524C16.5703 5.1418 16.6078 5.3293 16.6078 5.48399C16.6078 5.68555 16.575 5.79805 16.4672 5.99961C16.3734 6.17305 16.2516 6.3043 16.1109 6.39805L15.8953 6.53868C15.8906 7.22774 15.8672 7.56993 15.8438 7.74805C15.8156 7.92149 15.7406 8.17461 15.675 8.31055C15.6047 8.4418 15.4969 8.61993 15.4313 8.69493C15.3703 8.77461 15.2063 8.91524 15.075 9.01368C14.9438 9.11211 14.7 9.23399 14.5312 9.28555C14.2734 9.36055 14.0859 9.37461 13.2984 9.37461H12.375V10.6402H16.8516C17.2172 10.4715 17.3812 10.3496 17.4562 10.2606C17.5312 10.1715 17.625 10.0262 17.6625 9.93711C17.7047 9.83399 17.7422 9.55743 17.7562 9.18711L17.7797 8.60118C17.3719 8.34336 17.2547 8.22149 17.1562 8.05274C17.0437 7.85118 17.0156 7.74805 17.0156 7.51368C17.0156 7.34961 17.0437 7.14805 17.0766 7.06836C17.1141 6.98399 17.2031 6.84336 17.2781 6.7543C17.3531 6.66524 17.5219 6.54336 17.6484 6.48243C17.7938 6.4168 17.9719 6.37461 18.1172 6.37461C18.2625 6.37461 18.4406 6.4168 18.5859 6.48243C18.7172 6.54336 18.8813 6.66524 18.9562 6.7543C19.0312 6.84336 19.125 6.98868 19.1625 7.07774C19.2 7.1668 19.2281 7.35899 19.2281 7.49961C19.2281 7.67305 19.1953 7.83243 19.1203 7.98711C19.0594 8.11368 18.9422 8.26836 18.8672 8.33399C18.7922 8.39961 18.6797 8.47461 18.6188 8.50274C18.5203 8.54961 18.5109 8.58243 18.5156 8.99961C18.5156 9.24336 18.4922 9.58555 18.4688 9.76368C18.4406 9.93711 18.3656 10.1996 18.2953 10.3496C18.225 10.4949 18.0656 10.7152 17.9437 10.8418C17.8172 10.9637 17.5781 11.1324 17.4 11.2168L17.0859 11.3668L12.375 11.3902V12.609L17.0859 12.6324C17.5781 12.8668 17.8172 13.0356 17.9437 13.1621C18.0656 13.284 18.225 13.5043 18.2953 13.6543C18.3656 13.7996 18.4406 14.0621 18.4688 14.2402C18.4922 14.4137 18.5156 14.7559 18.5156 14.9996V15.4449C18.7781 15.5902 18.9094 15.6981 18.975 15.7731C19.0406 15.8481 19.125 15.9887 19.1625 16.0777C19.2 16.1668 19.2281 16.359 19.2281 16.4996C19.2281 16.6402 19.2 16.8324 19.1625 16.9215C19.125 17.0106 19.0312 17.1559 18.9562 17.2449C18.8813 17.334 18.7125 17.4559 18.5859 17.5168C18.4406 17.5824 18.2625 17.6246 18.1172 17.6246C17.9719 17.6246 17.7938 17.5824 17.6484 17.5168C17.5172 17.4559 17.3531 17.334 17.2781 17.2449C17.2031 17.1559 17.1141 17.0152 17.0766 16.9356C17.0437 16.8512 17.0156 16.6496 17.0156 16.4902C17.0156 16.2606 17.0437 16.1434 17.1469 15.9606C17.2359 15.7965 17.3484 15.6746 17.5266 15.5621L17.775 15.3981C17.7422 14.4418 17.7047 14.1652 17.6625 14.0621C17.625 13.9731 17.5312 13.8277 17.4562 13.7387C17.3812 13.6496 17.2172 13.5277 17.0859 13.4668L16.8516 13.359H12.375V14.6246C14.0859 14.6246 14.2734 14.6387 14.5312 14.7137C14.7 14.7652 14.9438 14.8871 15.075 14.9856C15.2063 15.084 15.3703 15.2293 15.4313 15.3043C15.4969 15.3793 15.6047 15.5574 15.675 15.6934C15.7406 15.8246 15.8156 16.0777 15.8438 16.2559C15.8672 16.4293 15.8906 16.7715 15.8906 17.0152L15.8953 17.4606C16.2609 17.6949 16.3734 17.8262 16.4672 17.9996C16.575 18.1965 16.6078 18.3184 16.6078 18.5152C16.6078 18.6699 16.5703 18.8574 16.5141 18.984C16.4625 19.1012 16.3406 19.2652 16.2375 19.3543C16.1391 19.4434 15.9844 19.5418 15.9047 19.5793C15.8203 19.6121 15.6516 19.6402 15.5297 19.6402C15.4031 19.6402 15.2203 19.6121 15.1219 19.5793C15.0234 19.5512 14.8641 19.4574 14.7703 19.3777C14.6766 19.298 14.5547 19.1434 14.4984 19.0262C14.4234 18.8809 14.3906 18.7355 14.3906 18.5387C14.3906 18.3324 14.4187 18.1918 14.5031 18.0231C14.5875 17.8543 14.6906 17.7371 14.8828 17.6012L15.15 17.4137C15.1172 16.4574 15.0797 16.1809 15.0375 16.0777C15 15.9887 14.9062 15.8434 14.8312 15.7543C14.7562 15.6699 14.6109 15.5527 14.5078 15.4965C14.3391 15.4074 14.2359 15.3981 13.3453 15.3887L12.375 15.3746V20.7418C12.7922 21.1496 13.0219 21.3371 13.1484 21.4262C13.2797 21.5106 13.4953 21.6277 13.6312 21.6887C13.7625 21.7496 14.0437 21.8387 14.25 21.8902C14.4563 21.9418 14.7516 21.984 14.9062 21.984C15.0609 21.984 15.3656 21.9418 15.5859 21.8902C15.8062 21.8387 16.0969 21.7496 16.2328 21.6887C16.3641 21.6277 16.6031 21.4965 16.7578 21.3887C16.9125 21.2856 17.1703 21.0559 17.3344 20.8777C17.5219 20.6762 17.7094 20.4043 17.8312 20.1559C17.9438 19.9356 18.0703 19.5981 18.1125 19.4059L18.1875 19.0543C18.6422 18.9559 18.8813 18.8855 19.0078 18.834C19.1391 18.7824 19.3875 18.6512 19.5703 18.5387C19.7531 18.4262 20.0156 18.2152 20.1609 18.0606C20.3062 17.9106 20.5031 17.6621 20.6016 17.5074C20.7 17.3527 20.8453 17.0574 20.9203 16.8512C21.0375 16.5324 21.0609 16.3777 21.0938 15.7965C21.1219 15.2856 21.1547 15.0512 21.225 14.859C21.2812 14.7184 21.4359 14.4652 21.5766 14.2965C21.7125 14.1277 21.8672 13.9262 21.9234 13.8512C21.9797 13.7762 22.0875 13.5793 22.1672 13.4199C22.2469 13.2559 22.3547 12.9512 22.4062 12.7402C22.4578 12.5246 22.5 12.1871 22.5 11.9902C22.5 11.7746 22.4578 11.4652 22.4016 11.2402C22.35 11.0246 22.2422 10.7246 22.1625 10.5699C22.0875 10.4152 21.9797 10.2277 21.9234 10.1481C21.8672 10.0731 21.7125 9.87149 21.5766 9.70274C21.4359 9.53399 21.2812 9.28086 21.225 9.14024C21.1547 8.94805 21.1219 8.71368 21.0938 8.20274C21.0656 7.63086 21.0375 7.4668 20.9297 7.17149C20.8547 6.9793 20.7234 6.69336 20.6344 6.53868C20.5453 6.38399 20.3109 6.09805 20.1141 5.90118C19.8422 5.63399 19.6594 5.49805 19.3359 5.33399C19.0875 5.21211 18.7641 5.09024 18.5484 5.04336L18.1875 4.96836C18.0797 4.44336 17.9719 4.1293 17.8781 3.93711C17.7844 3.74493 17.6438 3.50118 17.5641 3.39805C17.4844 3.29493 17.3344 3.1168 17.2313 3.00899C17.1234 2.89649 16.9125 2.71836 16.7578 2.61055C16.6031 2.50743 16.3641 2.37149 16.2328 2.31055C16.0969 2.24961 15.8156 2.16055 15.6094 2.10899C15.3891 2.05274 15.0937 2.01524 14.8969 2.01993C14.7047 2.02461 14.3859 2.07149 14.1797 2.12774Z" fill="#DEC8FE"/>
</svg>
