<svg width="24" height="24" viewBox="0 0 24 24" fill="none" xmlns="http://www.w3.org/2000/svg">
<path d="M3.39395 0.459375C3.3377 0.501563 3.26738 0.585937 3.23926 0.642187C3.20176 0.717187 3.1877 1.65937 3.1877 3.85312C3.1877 5.72812 3.20645 7.09219 3.23926 7.28906C3.2627 7.46719 3.3377 7.77656 3.40332 7.96875C3.46895 8.16094 3.60957 8.47031 3.7127 8.64844C3.82051 8.82656 4.06426 9.13594 4.26113 9.32812C4.45801 9.525 4.74395 9.75937 4.89863 9.85312C5.05332 9.95156 5.34863 10.0875 5.55488 10.1625C5.76113 10.2422 6.09863 10.3266 6.30488 10.3594C6.52051 10.3922 6.82988 10.4062 7.03145 10.3875C7.22363 10.3734 7.53301 10.3172 7.71113 10.2656C7.88926 10.2141 8.15644 10.1156 8.29707 10.05C8.43769 9.98438 8.68145 9.83906 8.83613 9.73125C8.99082 9.61875 9.24395 9.39375 9.39863 9.22969C9.55332 9.06562 9.75957 8.80313 9.85332 8.64844C9.94707 8.49375 10.0877 8.19844 10.1674 7.99219C10.2424 7.78594 10.3268 7.44844 10.3596 7.24219C10.3924 6.97969 10.4064 5.91094 10.3971 3.73594L10.383 0.6C10.1064 0.379688 10.0689 0.375 9.40801 0.375C8.82676 0.375 8.7002 0.389063 8.60176 0.459375C8.53613 0.501563 8.46582 0.571875 8.44707 0.609375C8.42832 0.646875 8.40488 2.15625 8.39082 3.96094L8.36738 7.24219C8.16582 7.62187 8.04863 7.80469 7.97363 7.88906C7.90332 7.96875 7.70644 8.11406 7.54238 8.20312C7.26113 8.35781 7.21426 8.36719 6.82051 8.36719C6.49707 8.36719 6.35176 8.34375 6.1877 8.26875C6.07051 8.21719 5.88301 8.09062 5.77051 7.9875C5.65801 7.88906 5.51738 7.72969 5.46113 7.64062C5.40488 7.55156 5.32988 7.40156 5.29238 7.3125C5.24082 7.17656 5.22207 6.53906 5.20332 3.87656L5.17988 0.6C4.90332 0.379688 4.86582 0.375 4.19551 0.375C3.6002 0.375 3.47832 0.389063 3.39395 0.459375ZM12.5393 0.50625C12.4361 0.609375 12.4033 0.675 12.4127 0.801563C12.4221 0.928125 12.7268 1.38281 13.9455 3.09375C15.2299 4.89844 15.4643 5.25 15.4689 5.39062C15.4689 5.53125 15.2627 5.84531 13.9455 7.70156C12.7127 9.43594 12.4221 9.87187 12.4221 9.99844C12.4174 10.0781 12.4596 10.2 12.5111 10.2656C12.6002 10.3781 12.6189 10.3828 13.2752 10.3969C13.8799 10.4109 13.9549 10.4062 14.0627 10.3219C14.1283 10.275 14.6439 9.58125 15.2111 8.78437C15.7783 7.9875 16.2893 7.28906 16.3455 7.23281C16.4018 7.17188 16.5049 7.125 16.5799 7.125C16.6502 7.125 16.7533 7.15313 16.8049 7.18594C16.8564 7.22344 17.3861 7.93125 17.9768 8.76562C18.5674 9.59531 19.0971 10.3078 19.1486 10.3406C19.2143 10.3875 19.4205 10.4062 19.8752 10.4062C20.4236 10.4109 20.5221 10.3969 20.6252 10.3219C20.6908 10.275 20.7564 10.1766 20.7799 10.1109C20.7986 10.0266 20.7893 9.93281 20.7377 9.82969C20.7002 9.75 20.0018 8.75156 19.1955 7.61719C18.0799 6.05625 17.7236 5.52187 17.7189 5.41406C17.7143 5.30156 18.0236 4.8375 19.2424 3.11719C20.0814 1.93125 20.7799 0.91875 20.7939 0.867188C20.808 0.815625 20.7939 0.7125 20.7564 0.642187C20.7236 0.567187 20.6486 0.478125 20.5924 0.440625C20.5127 0.39375 20.3158 0.375 19.8658 0.375C19.2893 0.375 19.233 0.384375 19.1205 0.482813C19.0502 0.539063 18.5252 1.25156 17.9533 2.0625C17.3814 2.87344 16.8752 3.56719 16.833 3.6C16.7908 3.63281 16.683 3.65625 16.5939 3.65625C16.4861 3.65625 16.3971 3.62344 16.3268 3.55313C16.2705 3.49219 15.7689 2.80312 15.2111 2.01562C14.6533 1.22813 14.1424 0.539063 14.0721 0.482813C13.9549 0.384375 13.8986 0.375 13.308 0.375C12.6752 0.375 12.6752 0.375 12.5393 0.50625ZM0.23457 11.6625C0.14082 11.7047 0.0517578 11.7984 0.0236328 11.8687C-0.00917969 11.9578 -0.00917969 12.0422 0.0236328 12.1266C0.0517578 12.2016 0.14082 12.2953 0.23457 12.3375C0.389258 12.4172 1.05019 12.4219 12.0002 12.4219C22.9502 12.4219 23.6111 12.4172 23.7658 12.3375C23.8596 12.2953 23.9486 12.2016 23.9768 12.1266C24.0096 12.0422 24.0096 11.9578 23.9768 11.8687C23.9486 11.7984 23.8596 11.7047 23.7658 11.6625C23.6111 11.5828 22.9502 11.5781 12.0002 11.5781C1.05019 11.5781 0.389258 11.5828 0.23457 11.6625ZM3.34238 13.7062L3.21113 13.8187C3.21113 20.2172 3.22051 20.5359 3.29551 20.8359C3.34238 21.0187 3.47363 21.3563 3.58613 21.5859C3.69863 21.8156 3.89551 22.1344 4.02207 22.2891C4.14863 22.4438 4.40176 22.6828 4.5752 22.8187C4.75332 22.9594 5.04395 23.1422 5.22676 23.2313C5.40488 23.3203 5.76582 23.4422 6.02363 23.5078C6.28145 23.5734 6.61895 23.625 6.77363 23.625C6.92832 23.625 7.26582 23.5734 7.52363 23.5078C7.78145 23.4422 8.16113 23.3109 8.36738 23.2078C8.57363 23.1047 8.88301 22.9031 9.05645 22.7625C9.23457 22.6172 9.46894 22.3781 9.58613 22.2328C9.70332 22.0828 9.88144 21.8016 9.97988 21.6094C10.083 21.4172 10.2143 21.0984 10.2705 20.9062C10.3783 20.5547 10.3783 20.5453 10.3924 17.2125L10.4064 13.875L10.1252 13.5938C8.69551 13.5938 8.66738 13.5984 8.54082 13.7062L8.41426 13.8187L8.36738 20.4141C8.17519 20.8172 8.00644 21.0328 7.86582 21.1641C7.70645 21.3188 7.52832 21.4359 7.35957 21.4922C7.19551 21.5484 6.97988 21.5812 6.77363 21.5812C6.52051 21.5812 6.38457 21.5531 6.1877 21.4594C6.04707 21.3937 5.83613 21.2578 5.72363 21.1594C5.60645 21.0516 5.46113 20.8547 5.37207 20.6719L5.22676 20.3672L5.17988 13.8187C4.92676 13.5984 4.89863 13.5938 4.2002 13.5938C3.50176 13.5938 3.46895 13.5984 3.34238 13.7062ZM12.9377 13.7297L12.8064 13.8656L12.7971 15.3281L13.0783 15.6094H15.7502L15.9846 15.8438C15.9799 20.6906 15.9658 21.3703 15.9236 21.4266C15.8908 21.4688 15.8205 21.525 15.7596 21.5531C15.6893 21.5906 15.2533 21.6094 14.3533 21.6094C13.1158 21.6094 13.0502 21.6141 12.9471 21.7031C12.8908 21.7547 12.8299 21.8438 12.8158 21.9047C12.8018 21.9609 12.7971 22.3219 12.8064 22.7016L12.8205 23.4L13.1018 23.625C20.2408 23.625 20.5174 23.6156 20.6064 23.5406C20.6627 23.4984 20.733 23.4141 20.7611 23.3578C20.7939 23.2922 20.8127 22.9781 20.8127 22.5703C20.8127 21.9141 20.808 21.8859 20.6955 21.75L20.5783 21.6094C18.1924 21.6094 17.9299 21.5953 17.8127 21.5391C17.7143 21.4922 17.658 21.4125 17.6205 21.2953C17.5877 21.1781 17.5783 20.2359 17.5877 18.4828L17.6018 15.8484C17.8127 15.6328 17.8361 15.6328 19.1955 15.6094C20.5549 15.5859 20.5783 15.5859 20.6814 15.4781C20.7846 15.375 20.7893 15.3422 20.7893 14.5969V13.8187L20.5314 13.5938H13.0689L12.9377 13.7297Z" fill="#FFD25D"/>
</svg>
