<svg width="161" height="137" viewBox="0 0 161 137" fill="none" xmlns="http://www.w3.org/2000/svg">
<g opacity="0.2">
<path d="M70.5408 1.76562C70.5408 26.489 50.4964 46.5312 25.7704 46.5312H-19V1.76562C-19 -22.9578 1.04437 -43 25.7704 -43C50.4964 -43 70.5408 -22.9578 70.5408 1.76562Z" fill="white"/>
<path d="M70.5415 91.2969C70.5415 66.5735 90.5859 46.5312 115.312 46.5312H160.082V91.2969C160.082 116.02 140.038 136.062 115.312 136.062C90.5859 136.062 70.5415 116.02 70.5415 91.2969Z" fill="white"/>
<path d="M-19 91.2969C-19 116.02 1.04437 136.062 25.7704 136.062H70.5408V91.2969C70.5408 66.5735 50.4964 46.5312 25.7704 46.5312C1.04437 46.5312 -19 66.5735 -19 91.2969Z" fill="white"/>
<path d="M160.082 1.76562C160.082 -22.9578 140.038 -43 115.312 -43H70.5415V1.76562C70.5415 26.489 90.5859 46.5312 115.312 46.5312C140.038 46.5312 160.082 26.489 160.082 1.76562Z" fill="white"/>
</g>
</svg>
