<svg width="32" height="32" viewBox="0 0 32 32" fill="none" xmlns="http://www.w3.org/2000/svg">
<path opacity="0.5" d="M18.1723 27.2973L17.4497 28.5186C16.8057 29.6066 15.1963 29.6066 14.551 28.5186L13.8283 27.2973C13.2683 26.3506 12.9883 25.876 12.5377 25.6146C12.087 25.352 11.5203 25.3426 10.387 25.3226C8.71233 25.2946 7.66299 25.192 6.78299 24.8266C5.97415 24.4916 5.23921 24.0005 4.62015 23.3815C4.00109 22.7624 3.51002 22.0275 3.17499 21.2186C2.66699 19.9946 2.66699 18.4413 2.66699 15.3346V14.0013C2.66699 9.6373 2.66699 7.45464 3.64966 5.85197C4.19905 4.9549 4.95292 4.20057 5.84966 3.65064C7.45366 2.66797 9.63766 2.66797 14.0003 2.66797H18.0003C22.3643 2.66797 24.547 2.66797 26.151 3.65064C27.0476 4.20019 27.8014 4.95405 28.351 5.85064C29.3337 7.45464 29.3337 9.63864 29.3337 14.0013V15.3346C29.3337 18.4413 29.3337 19.9946 28.827 21.2186C28.4918 22.0276 28.0005 22.7626 27.3812 23.3817C26.7619 24.0007 26.0268 24.4917 25.2177 24.8266C24.3377 25.192 23.2883 25.2933 21.6137 25.3226C20.4803 25.3426 19.9137 25.352 19.463 25.6146C19.0123 25.876 18.7323 26.3493 18.1723 27.2973Z" fill="#704FE6"/>
<path d="M9.66699 12C9.66699 11.7348 9.77235 11.4804 9.95989 11.2929C10.1474 11.1054 10.4018 11 10.667 11H21.3337C21.5989 11 21.8532 11.1054 22.0408 11.2929C22.2283 11.4804 22.3337 11.7348 22.3337 12C22.3337 12.2652 22.2283 12.5196 22.0408 12.7071C21.8532 12.8946 21.5989 13 21.3337 13H10.667C10.4018 13 10.1474 12.8946 9.95989 12.7071C9.77235 12.5196 9.66699 12.2652 9.66699 12ZM9.66699 16.6667C9.66699 16.4015 9.77235 16.1471 9.95989 15.9596C10.1474 15.772 10.4018 15.6667 10.667 15.6667H18.0003C18.2655 15.6667 18.5199 15.772 18.7074 15.9596C18.895 16.1471 19.0003 16.4015 19.0003 16.6667C19.0003 16.9319 18.895 17.1862 18.7074 17.3738C18.5199 17.5613 18.2655 17.6667 18.0003 17.6667H10.667C10.4018 17.6667 10.1474 17.5613 9.95989 17.3738C9.77235 17.1862 9.66699 16.9319 9.66699 16.6667Z" fill="#704FE6"/>
</svg>
