<svg width="32" height="32" viewBox="0 0 32 32" fill="none" xmlns="http://www.w3.org/2000/svg">
<path opacity="0.5" d="M28 14.7986V21.456C28 25.584 28 27.6493 27.0213 28.5506C26.5547 28.9813 25.9653 29.252 25.3373 29.324C24.0213 29.4746 22.484 28.1146 19.4107 25.396C18.0507 24.1946 17.372 23.5933 16.5867 23.436C16.1995 23.3569 15.8005 23.3569 15.4133 23.436C14.6267 23.5933 13.948 24.1946 12.5893 25.396C9.516 28.1146 7.97867 29.4746 6.66267 29.3226C6.0337 29.2503 5.44399 28.98 4.97867 28.5506C4 27.6493 4 25.5853 4 21.456V14.7973C4 9.0813 4 6.22264 5.75733 4.4453C7.51467 2.66797 10.344 2.66797 16 2.66797C21.656 2.66797 24.4853 2.66797 26.2427 4.44397C28 6.21997 28 9.0813 28 14.7986Z" fill="#704FE6"/>
<path d="M12 7C11.7348 7 11.4804 7.10536 11.2929 7.29289C11.1054 7.48043 11 7.73478 11 8C11 8.26522 11.1054 8.51957 11.2929 8.70711C11.4804 8.89464 11.7348 9 12 9H20C20.2652 9 20.5196 8.89464 20.7071 8.70711C20.8946 8.51957 21 8.26522 21 8C21 7.73478 20.8946 7.48043 20.7071 7.29289C20.5196 7.10536 20.2652 7 20 7H12Z" fill="#704FE6"/>
</svg>
