<svg width="32" height="32" viewBox="0 0 32 32" fill="none" xmlns="http://www.w3.org/2000/svg">
<path opacity="0.5" d="M25.0001 12.0013V12.94C25.0001 14.0666 25.3201 15.168 25.9228 16.1053L27.4001 18.4026C28.7481 20.5013 27.7188 23.3533 25.3734 24.016C19.245 25.7515 12.7551 25.7515 6.62675 24.016C4.28142 23.3533 3.25208 20.5013 4.60008 18.4026L6.07742 16.1053C6.6817 15.1602 7.00237 14.0617 7.00142 12.94V12.0013C7.00142 6.84664 11.0307 2.66797 16.0001 2.66797C20.9694 2.66797 25.0001 6.84664 25.0001 12.0013Z" fill="#704FE6"/>
<path d="M9.65723 24.7266C10.0929 26.0654 10.9411 27.232 12.0803 28.0593C13.2195 28.8866 14.5913 29.3322 15.9992 29.3322C17.4071 29.3322 18.779 28.8866 19.9182 28.0593C21.0574 27.232 21.9056 26.0654 22.3412 24.7266C18.1479 25.5132 13.8519 25.5132 9.65723 24.7266Z" fill="#704FE6"/>
</svg>
